<?xml version="1.0" standalone="no"?>
<!DOCTYPE svg PUBLIC "-//W3C//DTD SVG 20010904//EN"
 "http://www.w3.org/TR/2001/REC-SVG-20010904/DTD/svg10.dtd">
<svg version="1.0" xmlns="http://www.w3.org/2000/svg"
 width="1280.000000pt" height="505.000000pt" viewBox="0 0 1280.000000 505.000000"
 preserveAspectRatio="xMidYMid meet">

<g transform="translate(0.000000,505.000000) scale(0.100000,-0.100000)"
fill="#000000" stroke="none">
<path d="M1957 3555 c-399 -75 -717 -375 -825 -775 -21 -82 -25 -117 -26 -250
0 -170 16 -259 74 -400 189 -457 661 -718 1151 -634 214 37 404 136 559 293
510 515 360 1370 -295 1682 -146 69 -240 91 -415 95 -99 2 -170 -1 -223 -11z
m383 -419 c163 -60 269 -220 258 -391 -10 -160 -113 -293 -265 -344 -51 -17
-87 -21 -197 -21 l-134 0 -4 -194 c-3 -179 -5 -197 -24 -223 -47 -63 -148 -86
-202 -46 -63 47 -67 60 -70 241 -3 161 -2 168 20 201 38 56 67 71 146 78 l72
6 0 327 c0 420 -17 391 220 385 94 -2 149 -8 180 -19z"/>
<path d="M2018 3090 c-17 -10 -18 -37 -18 -330 l0 -320 83 -1 c148 -1 191 2
240 17 64 21 149 100 184 172 24 49 28 69 28 142 0 76 -4 93 -33 152 -36 73
-80 115 -159 150 -40 18 -71 23 -178 25 -82 2 -137 0 -147 -7z"/>
<path d="M1808 2364 c-15 -8 -32 -23 -38 -34 -5 -10 -10 -87 -10 -173 0 -146
1 -154 23 -174 12 -11 32 -24 44 -27 28 -9 88 16 102 42 7 13 11 91 11 201 l0
181 -52 0 c-29 -1 -65 -7 -80 -16z"/>
<path d="M3540 2524 l0 -1045 23 3 22 3 3 1043 2 1042 -25 0 -25 0 0 -1046z"/>
<path d="M5367 3261 c-107 -35 -172 -96 -225 -208 -25 -53 -27 -69 -27 -174 0
-113 1 -116 38 -191 59 -121 149 -188 281 -210 174 -29 350 58 421 207 101
214 18 470 -183 563 -77 35 -218 41 -305 13z m212 -46 c96 -13 182 -82 230
-185 22 -47 26 -69 26 -150 0 -83 -4 -103 -29 -157 -33 -72 -94 -134 -164
-166 -70 -33 -217 -31 -287 3 -65 32 -121 89 -154 159 -23 49 -26 68 -26 161
0 92 3 112 26 161 32 68 87 125 148 152 46 20 131 36 166 31 11 -1 40 -5 64
-9z"/>
<path d="M8100 3266 c-107 -31 -201 -110 -246 -209 -27 -57 -29 -71 -29 -177
0 -97 4 -124 23 -173 31 -75 111 -158 189 -195 53 -25 68 -27 178 -27 115 0
122 1 181 32 33 17 75 45 92 61 l33 31 -3 143 -3 143 -162 3 -163 2 0 -30 0
-30 135 0 135 0 0 -110 0 -110 -37 -24 c-60 -40 -122 -58 -203 -59 -207 -3
-342 132 -342 343 1 223 176 373 397 338 69 -10 98 -22 153 -59 42 -28 46 -29
61 -14 15 15 13 19 -23 51 -57 50 -135 76 -236 80 -50 2 -103 -2 -130 -10z"/>
<path d="M4100 2881 l0 -391 30 0 30 0 0 135 0 135 168 0 c92 0 184 5 205 11
48 13 112 70 139 123 25 49 34 138 19 193 -16 57 -68 123 -121 153 -43 24 -52
25 -257 28 l-213 3 0 -390z m441 306 c34 -17 50 -35 72 -77 44 -86 32 -177
-32 -241 -51 -51 -93 -60 -268 -57 l-148 3 -3 198 -2 197 168 0 c156 0 172 -2
213 -23z"/>
<path d="M6290 3200 l0 -70 120 0 120 0 0 -320 0 -320 75 0 75 0 0 320 0 319
123 3 122 3 3 68 3 67 -321 0 -320 0 0 -70z"/>
<path d="M7250 2880 l0 -390 70 0 70 0 0 390 0 390 -70 0 -70 0 0 -390z"/>
<path d="M8990 2992 c0 -312 4 -338 66 -411 59 -68 113 -94 211 -99 64 -4 94
0 130 13 63 24 135 94 164 158 23 50 24 63 27 335 l3 282 -30 0 -30 0 -3 -277
c-3 -241 -6 -283 -21 -318 -80 -178 -339 -192 -429 -23 -22 41 -23 56 -28 328
l-5 285 -27 3 -28 3 0 -279z"/>
<path d="M10311 3228 c-10 -24 -41 -93 -69 -154 -28 -61 -88 -194 -133 -295
-45 -101 -92 -208 -105 -236 l-24 -53 34 0 c32 0 34 2 72 93 l40 92 229 3
c137 1 232 -1 238 -7 6 -6 26 -47 47 -93 34 -77 39 -83 68 -86 18 -2 32 0 32
3 0 4 -31 75 -68 158 -38 84 -116 257 -173 385 l-104 232 -33 0 c-29 0 -35 -5
-51 -42z m168 -283 c49 -110 87 -203 84 -207 -2 -5 -94 -8 -204 -8 -156 0
-199 3 -199 13 0 11 179 422 197 450 7 12 1 24 122 -248z"/>
<path d="M11140 2880 l0 -390 30 0 30 0 0 145 0 145 113 -1 112 0 130 -145
c125 -139 130 -144 169 -144 l39 0 -20 23 c-11 12 -70 76 -131 142 -62 66
-112 123 -112 128 0 4 15 7 33 7 40 0 125 39 154 71 61 66 74 189 29 276 -14
29 -41 64 -60 78 -61 46 -111 55 -323 55 l-193 0 0 -390z m464 296 c121 -92
89 -287 -53 -326 -23 -6 -106 -9 -193 -8 l-153 3 -3 183 -2 183 183 -3 184 -3
37 -29z"/>
<path d="M10116 2215 c-23 -35 -20 -47 10 -43 16 2 37 16 52 36 l25 32 -36 0
c-26 0 -39 -6 -51 -25z"/>
<path d="M4122 2125 c-21 -9 -38 -27 -48 -50 -29 -71 7 -117 109 -138 74 -16
97 -30 97 -58 0 -51 -107 -64 -156 -18 -20 19 -27 21 -49 11 -31 -14 -31 -22
-4 -51 62 -67 195 -67 254 -1 14 15 20 36 20 67 0 61 -31 87 -122 103 -74 13
-93 23 -93 51 0 38 76 52 131 23 35 -17 72 -10 67 14 -2 9 -18 27 -37 39 -40
27 -117 31 -169 8z"/>
<path d="M5489 2117 c-114 -59 -121 -251 -12 -318 53 -33 143 -33 195 -1 48
30 78 92 78 162 0 139 -137 222 -261 157z m137 -52 c57 -24 80 -103 49 -170
-19 -39 -54 -59 -102 -58 -49 1 -79 20 -98 58 -39 84 13 183 98 185 10 0 33
-7 53 -15z"/>
<path d="M8299 2131 c-137 -44 -168 -250 -50 -328 62 -42 164 -42 216 -1 l26
20 -22 24 c-20 22 -23 22 -46 7 -14 -9 -43 -16 -67 -16 -78 0 -124 54 -113
136 11 81 99 123 176 82 26 -13 30 -13 50 9 l22 24 -35 21 c-38 24 -117 35
-157 22z"/>
<path d="M9152 2119 c-117 -58 -126 -251 -15 -320 51 -32 142 -33 193 -3 78
45 106 173 57 259 -43 77 -149 106 -235 64z m134 -54 c37 -15 64 -62 64 -111
0 -38 -27 -89 -55 -104 -36 -19 -102 -16 -127 6 -24 22 -48 74 -48 105 0 37
30 87 63 103 40 20 59 20 103 1z"/>
<path d="M10045 2121 c-48 -22 -69 -44 -90 -94 -43 -103 12 -219 117 -248 144
-38 271 106 217 248 -35 94 -149 138 -244 94z m158 -81 c35 -39 39 -122 7
-163 -27 -34 -79 -48 -126 -36 -88 25 -102 169 -22 220 47 29 104 20 141 -21z"/>
<path d="M10532 2119 c-114 -57 -127 -245 -23 -316 64 -43 164 -40 225 8 24
19 26 26 26 95 l0 74 -75 0 c-73 0 -75 -1 -75 -25 0 -23 4 -25 46 -25 l45 0
-3 -37 c-3 -34 -7 -39 -40 -50 -95 -31 -180 54 -148 150 23 73 103 107 169 72
31 -15 34 -15 52 1 15 14 17 20 6 32 -36 44 -137 54 -205 21z"/>
<path d="M11253 2129 c-68 -20 -123 -102 -123 -184 0 -37 30 -104 56 -127 52
-46 137 -60 201 -33 61 26 67 34 42 61 -20 22 -23 22 -46 7 -14 -9 -43 -16
-67 -16 -78 0 -124 54 -113 136 11 81 99 123 176 82 26 -13 30 -13 46 5 17 19
17 21 0 40 -32 35 -107 48 -172 29z"/>
<path d="M11676 2130 c-66 -20 -116 -95 -116 -175 0 -93 48 -156 133 -176 134
-29 243 72 222 207 -16 111 -127 177 -239 144z m114 -65 c87 -45 76 -198 -15
-224 -79 -22 -150 32 -150 114 0 93 87 151 165 110z"/>
<path d="M4502 1998 c3 -119 5 -136 26 -165 43 -61 142 -78 213 -36 49 29 57
58 60 198 l2 130 -31 3 -32 3 0 -119 c0 -106 -2 -122 -21 -146 -16 -21 -29
-26 -64 -26 -77 0 -95 37 -95 203 l0 87 -31 0 -31 0 4 -132z"/>
<path d="M4970 1955 l0 -176 33 3 c31 3 32 5 37 53 l5 50 75 6 c41 3 82 8 91
12 26 13 49 63 49 111 0 36 -6 52 -29 78 l-29 33 -116 3 -116 4 0 -177z m195
103 c29 -13 43 -53 28 -77 -17 -27 -56 -41 -103 -39 l-45 3 -3 63 -3 62 50 0
c28 0 62 -5 76 -12z"/>
<path d="M5905 2097 c-4 -19 -5 -97 -3 -173 l3 -139 33 -3 32 -3 0 60 0 61 33
-1 c27 0 40 -10 82 -60 45 -53 54 -59 87 -59 21 0 38 3 38 6 0 3 -20 29 -45
56 -25 28 -45 53 -45 57 0 4 13 15 30 24 46 28 61 113 27 157 -32 42 -59 50
-164 50 l-102 0 -6 -33z m203 -43 c26 -18 28 -50 5 -76 -12 -14 -31 -18 -80
-18 l-63 0 0 55 0 55 58 0 c36 0 66 -6 80 -16z"/>
<path d="M6320 2100 c0 -30 1 -30 55 -30 l55 0 0 -145 0 -145 35 0 35 0 0 145
0 145 55 0 c54 0 55 0 55 30 l0 30 -145 0 -145 0 0 -30z"/>
<path d="M6750 1955 l0 -175 130 0 130 0 0 35 0 35 -101 0 -100 0 3 38 3 37
93 3 c90 3 92 3 92 27 0 24 -2 25 -77 27 -43 0 -85 1 -93 2 -11 1 -15 13 -15
41 l0 40 98 3 97 3 0 29 0 30 -130 0 -130 0 0 -175z"/>
<path d="M7340 2100 c0 -30 1 -30 55 -30 l54 0 3 -142 3 -143 33 -3 32 -3 0
145 0 146 55 0 c54 0 55 0 55 30 l0 30 -145 0 -145 0 0 -30z"/>
<path d="M7770 1955 l0 -175 130 0 130 0 0 35 0 35 -100 0 c-99 0 -100 0 -100
24 0 53 5 56 106 56 94 0 94 0 94 25 0 25 -1 25 -89 25 -98 0 -115 9 -109 57
l3 28 98 3 97 3 0 29 0 30 -130 0 -130 0 0 -175z"/>
<path d="M8620 1954 l0 -175 33 3 32 3 5 110 5 110 85 -112 c63 -83 91 -112
108 -113 22 0 22 0 22 175 l0 175 -35 0 -34 0 -3 -102 -3 -103 -80 103 c-67
85 -84 102 -107 102 l-28 0 0 -176z"/>
<path d="M9560 1955 l0 -175 125 0 125 0 0 30 0 30 -90 0 -90 0 0 145 0 145
-35 0 -35 0 0 -175z"/>
<path d="M10914 2117 c-2 -7 -3 -85 -2 -172 l3 -160 33 -3 32 -3 0 175 0 176
-30 0 c-17 0 -33 -6 -36 -13z"/>
</g>
</svg>
